# xmcd
#
# Track frame offsets:
#	150
#	19954
#	36989
#	52831
#	73022
#	90541
#	111021
#	131771
#	154038
#	175160
#	191516
#	205014
#	218440
#	233953
#	253441
#	275808
#	292628
#
# Disc length: 4190 seconds
#
# Revision: 0
# Processed by: cddbd v1.5.1PL0 Copyright (c) Steve Scherf et al.
# Submitted via: dBpowerAMP V4.0
#
DISCID=f3105c11
DTITLE=Various Artist - Absolute - Svenska Ballader2 CD2
DYEAR=2004
DGENRE=Ballad
TTITLE0=Lisa Nilsson - Längsamt farväl
TTITLE1=Marie Fredriksson - Ännu doftar kärlek
TTITLE2=Tomas Ledin - I natt är jag din
TTITLE3=Mauro Scocco - Sarah
TTITLE4=X-Models - Två av oss
TTITLE5=Uno Svenningsson and Eva Dahlgren - Tro på varann
TTITLE6=Niklas Strömstedt and Annelie Rydé - En kvinna och en man
TTITLE7=Jan Johansen and Jill Johnson - Kommer tid kommer vår
TTITLE8=Suzziwa Orkester - Man kan äga
TTITLE9=Kayo - Sommar
TTITLE10=Emil Sigfridsson - Innan mörkret faller
TTITLE11=Andreas Lundstedt - Driver dagg faller regn
TTITLE12=Susanne Alfvengren - Om vi börjar natten tillsammans
TTITLE13=Grymlings - Där gullvivan blommar
TTITLE14=Monica Törnell - Heden
TTITLE15=Lisa Ekdahl - öppna upp ditt fönster
TTITLE16=Håkan Hellström - Jag ger dig min morgon
EXTD=Absolute Svenska Ballader 2  CD2
EXTT0=
EXTT1=
EXTT2=
EXTT3=
EXTT4=
EXTT5=
EXTT6=
EXTT7=
EXTT8=
EXTT9=
EXTT10=
EXTT11=
EXTT12=
EXTT13=
EXTT14=
EXTT15=
EXTT16=
PLAYORDER=
